<svg width="101" height="100" viewBox="0 0 101 100" fill="none" xmlns="http://www.w3.org/2000/svg">
<rect opacity="0.0229128" x="0.5" y="0.5" width="98.0099" height="99" stroke="#2B2B2B"/>
<g filter="url(#filter0_i)">
<path fill-rule="evenodd" clip-rule="evenodd" d="M33.4941 34.3313C41.8558 34.3376 48.6281 41.077 48.6217 49.3849C48.6154 57.6928 41.8324 64.4216 33.4707 64.4152C25.109 64.4089 18.3366 57.6695 18.343 49.3616C18.3494 41.0537 25.1324 34.325 33.4941 34.3313" fill="#F9C900"/>
</g>
<g filter="url(#filter1_i)">
<path fill-rule="evenodd" clip-rule="evenodd" d="M29.8843 69.4353C29.8843 69.6171 29.8609 69.7989 29.8119 69.9828L27.2992 79.2695C26.9949 80.3941 25.8311 81.06 24.6992 80.7577C23.5651 80.4554 22.8949 79.299 23.1992 78.1744L25.7119 68.8877C26.0162 67.7631 27.18 67.0972 28.3119 67.3974C29.2609 67.6511 29.8843 68.5051 29.8843 69.4353" fill="#F9C900"/>
</g>
<g filter="url(#filter2_i)">
<path fill-rule="evenodd" clip-rule="evenodd" d="M19.3677 65.6227C19.3677 66.1914 19.1379 66.7579 18.6826 67.1722L11.5655 73.6896C10.7038 74.4781 9.36129 74.4232 8.56767 73.567C7.77193 72.7108 7.82725 71.3769 8.68895 70.5863L15.806 64.0711C16.6698 63.2825 18.0124 63.3354 18.806 64.1937C19.1826 64.5974 19.3677 65.1111 19.3677 65.6227" fill="#F9C900"/>
</g>
<g filter="url(#filter3_i)">
<mask id="mask0" mask-type="alpha" maskUnits="userSpaceOnUse" x="0" y="53" width="14" height="7">
<path fill-rule="evenodd" clip-rule="evenodd" d="M0 53.2717V59.8971H13.616V53.2717L0 53.2717L0 53.2717Z" fill="white"/>
</mask>
<g mask="url(#mask0)">
<path fill-rule="evenodd" clip-rule="evenodd" d="M13.616 55.3837C13.616 56.3223 12.9798 57.1763 12.0245 57.4216L2.65426 59.8294C1.52021 60.1211 0.360639 59.4425 0.0670216 58.3158C-0.224468 57.189 0.456383 56.0369 1.59255 55.7452L10.9628 53.3395C12.0968 53.0478 13.2543 53.7242 13.5479 54.8531C13.5947 55.0307 13.616 55.2082 13.616 55.3837" fill="#F9C900"/>
</g>
</g>
<g filter="url(#filter4_i)">
<path fill-rule="evenodd" clip-rule="evenodd" d="M13.9139 43.5691C13.9139 43.7425 13.8926 43.9179 13.8458 44.0955C13.5543 45.2223 12.3968 45.9008 11.2628 45.6112L1.88832 43.214C0.754282 42.9244 0.071303 41.7723 0.362792 40.6455C0.654282 39.5188 1.81173 38.8402 2.9479 39.1298L12.3202 41.527C13.2777 41.7723 13.9139 42.6284 13.9139 43.5691" fill="#F9C900"/>
</g>
<g filter="url(#filter5_i)">
<path fill-rule="evenodd" clip-rule="evenodd" d="M19.3153 33.3003C19.3153 33.8288 19.1174 34.3573 18.7174 34.7653C17.9025 35.6024 16.5578 35.6236 15.7153 34.8139L8.76421 28.1232C7.92166 27.3135 7.90038 25.9796 8.71527 25.1425C9.53017 24.3054 10.8748 24.2842 11.7174 25.0939L18.6685 31.7825C19.1004 32.1968 19.3153 32.7486 19.3153 33.3003" fill="#F9C900"/>
</g>
<g filter="url(#filter6_i)">
<path fill-rule="evenodd" clip-rule="evenodd" d="M29.1759 27.4368C29.1759 28.3796 28.5334 29.2379 27.5717 29.4789C26.4355 29.7643 25.2802 29.0793 24.9951 27.9484L22.6291 18.6237C22.344 17.4927 23.0334 16.349 24.1696 16.0636C25.3057 15.7804 26.4611 16.4653 26.7462 17.5941L29.1121 26.9189C29.1547 27.0922 29.1759 27.2656 29.1759 27.4368" fill="#F9C900"/>
</g>
<g filter="url(#filter7_i)">
<path fill-rule="evenodd" clip-rule="evenodd" d="M43.3854 18.7993C43.3854 18.9769 43.362 19.1566 43.3152 19.3363L40.8556 28.6356C40.5577 29.7624 39.396 30.4346 38.262 30.1387C37.13 29.8427 36.4513 28.6885 36.7492 27.5638L39.2088 18.2624C39.5066 17.1377 40.6683 16.4634 41.8024 16.7593C42.7556 17.0088 43.3854 17.8628 43.3854 18.7993" fill="#F9C900"/>
</g>
<g filter="url(#filter8_i)">
<path fill-rule="evenodd" clip-rule="evenodd" d="M58.7764 26.829C58.7764 27.4167 58.5296 28.0023 58.0466 28.4187L50.7445 34.731C49.8615 35.4942 48.519 35.4012 47.7509 34.5239C46.9807 33.6445 47.0743 32.3127 47.9594 31.5474L55.2615 25.2372C56.1445 24.4719 57.4849 24.565 58.2552 25.4444C58.6062 25.8439 58.7764 26.3386 58.7764 26.829" fill="#F9C900"/>
</g>
<g filter="url(#filter9_i)">
<path fill-rule="evenodd" clip-rule="evenodd" d="M66.302 40.903C66.302 41.8289 65.6828 42.6766 64.7403 42.9345L55.4084 45.4776C54.2764 45.7863 53.1084 45.1267 52.7998 44.0021C52.4892 42.8774 53.153 41.719 54.285 41.4103L63.6169 38.8672C64.7488 38.5586 65.9147 39.2182 66.2254 40.3428C66.2764 40.5288 66.302 40.717 66.302 40.903" fill="#F9C900"/>
</g>
<g filter="url(#filter10_i)">
<path fill-rule="evenodd" clip-rule="evenodd" d="M66.1415 57.3442C66.1415 57.5175 66.1202 57.693 66.0734 57.8706C65.7819 58.9973 64.6245 59.6759 63.4904 59.3863L54.116 56.989C52.9819 56.6994 52.2968 55.5494 52.5904 54.4206C52.8819 53.2938 54.0394 52.6152 55.1755 52.9049L64.5479 55.3021C65.5053 55.5473 66.1415 56.4035 66.1415 57.3442" fill="#F9C900"/>
</g>
<g filter="url(#filter11_i)">
<path fill-rule="evenodd" clip-rule="evenodd" d="M58.2155 71.8243C58.2155 72.3718 58.0027 72.9172 57.5772 73.3294C56.7389 74.1454 55.3942 74.1306 54.5751 73.2977L47.8091 66.4209C46.99 65.588 47.0049 64.2541 47.8432 63.4403C48.6815 62.6243 50.0261 62.6391 50.8453 63.472L57.6113 70.3487C58.0155 70.7588 58.2155 71.2915 58.2155 71.8243" fill="#F9C900"/>
</g>
<g filter="url(#filter12_i)">
<path fill-rule="evenodd" clip-rule="evenodd" d="M43.6032 79.6011C43.6032 80.5313 42.9798 81.3811 42.033 81.6348C40.9011 81.9371 39.7351 81.2712 39.4309 80.1465L36.9117 70.862C36.6075 69.7373 37.2777 68.581 38.4096 68.2766C39.5415 67.9743 40.7075 68.6402 41.0117 69.7648L43.5287 79.0494C43.5798 79.2333 43.6032 79.4193 43.6032 79.6011" fill="#F9C900"/>
</g>
<g filter="url(#filter13_i)">
<path fill-rule="evenodd" clip-rule="evenodd" d="M30.3927 57.5989C23.6246 57.5989 18.1161 63.1248 18.1161 69.9191C18.1161 76.7092 23.6246 82.2373 30.3927 82.2373H83.7693C92.2672 82.2373 99.1778 75.2992 99.1778 66.7714C99.1778 58.2437 92.2672 51.3056 83.7693 51.3056C82.1884 51.3056 80.6161 51.5509 79.1012 52.0307L78.114 52.3457L77.765 51.3648C74.5033 42.1606 65.7842 35.9772 56.0714 35.9772C44.1969 35.9772 34.3416 44.9066 33.1459 56.747L33.0352 57.8441L31.9459 57.7089C31.3416 57.6327 30.848 57.5989 30.3927 57.5989" fill="#D6E3F2"/>
</g>
<g filter="url(#filter14_i)">
<path d="M28.9478 70.2734H25.8945L25.3613 72H22.981L26.3706 62.7578H28.4653L31.8804 72H29.4873L28.9478 70.2734ZM26.4277 68.5532H28.4146L27.418 65.3477L26.4277 68.5532ZM34.8384 63.4243V65.1318H35.9683V66.6172H34.8384V69.7593C34.8384 70.0174 34.8849 70.1973 34.978 70.2988C35.0711 70.4004 35.2552 70.4512 35.5303 70.4512C35.7419 70.4512 35.9196 70.4385 36.0635 70.4131V71.9429C35.6784 72.0656 35.2764 72.127 34.8574 72.127C34.1211 72.127 33.5773 71.9535 33.2261 71.6064C32.8748 71.2594 32.6992 70.7326 32.6992 70.0259V66.6172H31.8232V65.1318H32.6992V63.4243H34.8384ZM38.8374 65.1318L38.9072 65.938C39.3939 65.3159 40.0477 65.0049 40.8687 65.0049C41.7362 65.0049 42.3223 65.3498 42.627 66.0396C43.0924 65.3498 43.7653 65.0049 44.6455 65.0049C46.0378 65.0049 46.7529 65.847 46.791 67.5312V72H44.6455V67.6646C44.6455 67.3133 44.5863 67.0573 44.4678 66.8965C44.3493 66.7357 44.1335 66.6553 43.8203 66.6553C43.3971 66.6553 43.0819 66.8436 42.8745 67.2202L42.8809 67.3091V72H40.7354V67.6772C40.7354 67.3175 40.6782 67.0573 40.564 66.8965C40.4497 66.7357 40.2318 66.6553 39.9102 66.6553C39.4997 66.6553 39.1865 66.8436 38.9707 67.2202V72H36.8315V65.1318H38.8374ZM47.7432 68.5024C47.7432 67.8169 47.8765 67.2075 48.1431 66.6743C48.4097 66.1369 48.7926 65.7243 49.292 65.4365C49.7913 65.1488 50.3774 65.0049 51.0503 65.0049C52.0786 65.0049 52.889 65.3244 53.4814 65.9634C54.0739 66.5981 54.3701 67.4635 54.3701 68.5596V68.6357C54.3701 69.7064 54.0718 70.557 53.4751 71.1875C52.8826 71.8138 52.0786 72.127 51.063 72.127C50.0854 72.127 49.3005 71.835 48.708 71.251C48.1156 70.6628 47.7961 69.8672 47.7495 68.8643L47.7432 68.5024ZM49.8823 68.6357C49.8823 69.2705 49.9818 69.736 50.1807 70.0322C50.3796 70.3285 50.6737 70.4766 51.063 70.4766C51.8247 70.4766 52.214 69.8905 52.231 68.7183V68.5024C52.231 67.271 51.8374 66.6553 51.0503 66.6553C50.3351 66.6553 49.9479 67.1864 49.8887 68.2485L49.8823 68.6357ZM58.9087 70.0703C58.9087 69.8883 58.8135 69.7424 58.623 69.6323C58.4326 69.5223 58.0708 69.408 57.5376 69.2896C57.0044 69.1711 56.5643 69.0166 56.2173 68.8262C55.8703 68.6315 55.6058 68.3966 55.4238 68.1216C55.2419 67.8465 55.1509 67.5312 55.1509 67.1758C55.1509 66.5452 55.4111 66.0269 55.9316 65.6206C56.4521 65.2101 57.1335 65.0049 57.9756 65.0049C58.8812 65.0049 59.609 65.2101 60.1592 65.6206C60.7093 66.0311 60.9844 66.5706 60.9844 67.2393H58.8389C58.8389 66.6891 58.549 66.4141 57.9692 66.4141C57.745 66.4141 57.5566 66.4775 57.4043 66.6045C57.252 66.7272 57.1758 66.8817 57.1758 67.0679C57.1758 67.2583 57.2689 67.4128 57.4551 67.5312C57.6413 67.6497 57.9375 67.7471 58.3438 67.8232C58.7542 67.8994 59.1139 67.9904 59.4229 68.0962C60.4554 68.4517 60.9717 69.0885 60.9717 70.0068C60.9717 70.6331 60.6924 71.1431 60.1338 71.5366C59.5794 71.9302 58.86 72.127 57.9756 72.127C57.3874 72.127 56.8626 72.0212 56.4014 71.8096C55.9401 71.598 55.5804 71.3102 55.3223 70.9463C55.0641 70.5824 54.9351 70.1994 54.9351 69.7974H56.9346C56.943 70.1147 57.0488 70.3475 57.252 70.4956C57.4551 70.6395 57.7153 70.7114 58.0327 70.7114C58.3247 70.7114 58.5426 70.6522 58.6865 70.5337C58.8346 70.4152 58.9087 70.2607 58.9087 70.0703ZM68.354 68.6167C68.354 69.6831 68.1128 70.5358 67.6304 71.1748C67.1522 71.8096 66.5047 72.127 65.688 72.127C65.0575 72.127 64.5391 71.8963 64.1328 71.4351V74.6406H61.9937V65.1318H63.9932L64.0566 65.7666C64.4671 65.2588 65.0067 65.0049 65.6753 65.0049C66.5216 65.0049 67.1797 65.318 67.6494 65.9443C68.1191 66.5664 68.354 67.4233 68.354 68.5151V68.6167ZM66.2148 68.4834C66.2148 67.2646 65.8594 66.6553 65.1484 66.6553C64.6406 66.6553 64.3021 66.8372 64.1328 67.2012V69.9053C64.319 70.2861 64.6618 70.4766 65.1611 70.4766C65.8424 70.4766 66.1937 69.8883 66.2148 68.7119V68.4834ZM71.3945 65.8682C71.8516 65.2926 72.4355 65.0049 73.1465 65.0049C73.904 65.0049 74.4753 65.2292 74.8604 65.6777C75.2454 66.1263 75.4422 66.7886 75.4507 67.6646V72H73.3052V67.7153C73.3052 67.3514 73.2311 67.0848 73.083 66.9155C72.9349 66.742 72.6831 66.6553 72.3276 66.6553C71.8875 66.6553 71.5765 66.7949 71.3945 67.0742V72H69.2554V62.25H71.3945V65.8682ZM79.9639 72.127C78.9102 72.127 78.0575 71.8138 77.4058 71.1875C76.7541 70.557 76.4282 69.7381 76.4282 68.731V68.5532C76.4282 67.8507 76.5573 67.2308 76.8154 66.6934C77.0778 66.1559 77.4587 65.7412 77.958 65.4492C78.4574 65.153 79.0498 65.0049 79.7354 65.0049C80.7002 65.0049 81.4619 65.3053 82.0205 65.9062C82.5791 66.5029 82.8584 67.3366 82.8584 68.4072V69.2388H78.6055C78.6816 69.6239 78.8488 69.9264 79.1069 70.1465C79.3651 70.3665 79.6994 70.4766 80.1099 70.4766C80.7869 70.4766 81.3159 70.2396 81.6968 69.7656L82.6743 70.9209C82.4077 71.2891 82.029 71.5832 81.5381 71.8032C81.0514 72.019 80.5267 72.127 79.9639 72.127ZM79.7227 66.6553C79.0964 66.6553 78.724 67.07 78.6055 67.8994H80.7637V67.7344C80.7721 67.3916 80.6854 67.1271 80.5034 66.9409C80.3215 66.7505 80.0612 66.6553 79.7227 66.6553ZM87.8794 67.0679L87.1748 67.0171C86.502 67.0171 86.0703 67.2287 85.8799 67.6519V72H83.7407V65.1318H85.7466L85.8164 66.0142C86.1761 65.3413 86.6776 65.0049 87.3208 65.0049C87.5493 65.0049 87.7482 65.0303 87.9175 65.0811L87.8794 67.0679ZM91.8467 72.127C90.793 72.127 89.9403 71.8138 89.2886 71.1875C88.6369 70.557 88.311 69.7381 88.311 68.731V68.5532C88.311 67.8507 88.4401 67.2308 88.6982 66.6934C88.9606 66.1559 89.3415 65.7412 89.8408 65.4492C90.3402 65.153 90.9326 65.0049 91.6182 65.0049C92.583 65.0049 93.3447 65.3053 93.9033 65.9062C94.4619 66.5029 94.7412 67.3366 94.7412 68.4072V69.2388H90.4883C90.5645 69.6239 90.7316 69.9264 90.9897 70.1465C91.2479 70.3665 91.5822 70.4766 91.9927 70.4766C92.6698 70.4766 93.1987 70.2396 93.5796 69.7656L94.5571 70.9209C94.2905 71.2891 93.9118 71.5832 93.4209 71.8032C92.9342 72.019 92.4095 72.127 91.8467 72.127ZM91.6055 66.6553C90.9792 66.6553 90.6068 67.07 90.4883 67.8994H92.6465V67.7344C92.6549 67.3916 92.5682 67.1271 92.3862 66.9409C92.2043 66.7505 91.944 66.6553 91.6055 66.6553Z" fill="url(#paint0_linear)"/>
</g>
<defs>
<filter id="filter0_i" x="18.343" y="34.3313" width="30.2787" height="34.0839" filterUnits="userSpaceOnUse" color-interpolation-filters="sRGB">
<feFlood flood-opacity="0" result="BackgroundImageFix"/>
<feBlend mode="normal" in="SourceGraphic" in2="BackgroundImageFix" result="shape"/>
<feColorMatrix in="SourceAlpha" type="matrix" values="0 0 0 0 0 0 0 0 0 0 0 0 0 0 0 0 0 0 127 0" result="hardAlpha"/>
<feOffset dy="4"/>
<feGaussianBlur stdDeviation="2"/>
<feComposite in2="hardAlpha" operator="arithmetic" k2="-1" k3="1"/>
<feColorMatrix type="matrix" values="0 0 0 0 0 0 0 0 0 0 0 0 0 0 0 0 0 0 0.25 0"/>
<feBlend mode="normal" in2="shape" result="effect1_innerShadow"/>
</filter>
<filter id="filter1_i" x="23.1259" y="67.3254" width="6.75843" height="17.5051" filterUnits="userSpaceOnUse" color-interpolation-filters="sRGB">
<feFlood flood-opacity="0" result="BackgroundImageFix"/>
<feBlend mode="normal" in="SourceGraphic" in2="BackgroundImageFix" result="shape"/>
<feColorMatrix in="SourceAlpha" type="matrix" values="0 0 0 0 0 0 0 0 0 0 0 0 0 0 0 0 0 0 127 0" result="hardAlpha"/>
<feOffset dy="4"/>
<feGaussianBlur stdDeviation="2"/>
<feComposite in2="hardAlpha" operator="arithmetic" k2="-1" k3="1"/>
<feColorMatrix type="matrix" values="0 0 0 0 0 0 0 0 0 0 0 0 0 0 0 0 0 0 0.25 0"/>
<feBlend mode="normal" in2="shape" result="effect1_innerShadow"/>
</filter>
<filter id="filter2_i" x="8.005" y="63.5131" width="11.3627" height="14.7338" filterUnits="userSpaceOnUse" color-interpolation-filters="sRGB">
<feFlood flood-opacity="0" result="BackgroundImageFix"/>
<feBlend mode="normal" in="SourceGraphic" in2="BackgroundImageFix" result="shape"/>
<feColorMatrix in="SourceAlpha" type="matrix" values="0 0 0 0 0 0 0 0 0 0 0 0 0 0 0 0 0 0 127 0" result="hardAlpha"/>
<feOffset dy="4"/>
<feGaussianBlur stdDeviation="2"/>
<feComposite in2="hardAlpha" operator="arithmetic" k2="-1" k3="1"/>
<feColorMatrix type="matrix" values="0 0 0 0 0 0 0 0 0 0 0 0 0 0 0 0 0 0 0.25 0"/>
<feBlend mode="normal" in2="shape" result="effect1_innerShadow"/>
</filter>
<filter id="filter3_i" x="0" y="52.6408" width="14" height="12" filterUnits="userSpaceOnUse" color-interpolation-filters="sRGB">
<feFlood flood-opacity="0" result="BackgroundImageFix"/>
<feBlend mode="normal" in="SourceGraphic" in2="BackgroundImageFix" result="shape"/>
<feColorMatrix in="SourceAlpha" type="matrix" values="0 0 0 0 0 0 0 0 0 0 0 0 0 0 0 0 0 0 127 0" result="hardAlpha"/>
<feOffset dy="4"/>
<feGaussianBlur stdDeviation="2"/>
<feComposite in2="hardAlpha" operator="arithmetic" k2="-1" k3="1"/>
<feColorMatrix type="matrix" values="0 0 0 0 0 0 0 0 0 0 0 0 0 0 0 0 0 0 0.25 0"/>
<feBlend mode="normal" in2="shape" result="effect1_innerShadow"/>
</filter>
<filter id="filter4_i" x="0.295532" y="39.063" width="13.6183" height="10.6151" filterUnits="userSpaceOnUse" color-interpolation-filters="sRGB">
<feFlood flood-opacity="0" result="BackgroundImageFix"/>
<feBlend mode="normal" in="SourceGraphic" in2="BackgroundImageFix" result="shape"/>
<feColorMatrix in="SourceAlpha" type="matrix" values="0 0 0 0 0 0 0 0 0 0 0 0 0 0 0 0 0 0 127 0" result="hardAlpha"/>
<feOffset dy="4"/>
<feGaussianBlur stdDeviation="2"/>
<feComposite in2="hardAlpha" operator="arithmetic" k2="-1" k3="1"/>
<feColorMatrix type="matrix" values="0 0 0 0 0 0 0 0 0 0 0 0 0 0 0 0 0 0 0.25 0"/>
<feBlend mode="normal" in2="shape" result="effect1_innerShadow"/>
</filter>
<filter id="filter5_i" x="8.11792" y="24.5004" width="11.1974" height="14.9071" filterUnits="userSpaceOnUse" color-interpolation-filters="sRGB">
<feFlood flood-opacity="0" result="BackgroundImageFix"/>
<feBlend mode="normal" in="SourceGraphic" in2="BackgroundImageFix" result="shape"/>
<feColorMatrix in="SourceAlpha" type="matrix" values="0 0 0 0 0 0 0 0 0 0 0 0 0 0 0 0 0 0 127 0" result="hardAlpha"/>
<feOffset dy="4"/>
<feGaussianBlur stdDeviation="2"/>
<feComposite in2="hardAlpha" operator="arithmetic" k2="-1" k3="1"/>
<feColorMatrix type="matrix" values="0 0 0 0 0 0 0 0 0 0 0 0 0 0 0 0 0 0 0.25 0"/>
<feBlend mode="normal" in2="shape" result="effect1_innerShadow"/>
</filter>
<filter id="filter6_i" x="22.5648" y="15.9997" width="6.61113" height="17.5439" filterUnits="userSpaceOnUse" color-interpolation-filters="sRGB">
<feFlood flood-opacity="0" result="BackgroundImageFix"/>
<feBlend mode="normal" in="SourceGraphic" in2="BackgroundImageFix" result="shape"/>
<feColorMatrix in="SourceAlpha" type="matrix" values="0 0 0 0 0 0 0 0 0 0 0 0 0 0 0 0 0 0 127 0" result="hardAlpha"/>
<feOffset dy="4"/>
<feGaussianBlur stdDeviation="2"/>
<feComposite in2="hardAlpha" operator="arithmetic" k2="-1" k3="1"/>
<feColorMatrix type="matrix" values="0 0 0 0 0 0 0 0 0 0 0 0 0 0 0 0 0 0 0.25 0"/>
<feBlend mode="normal" in2="shape" result="effect1_innerShadow"/>
</filter>
<filter id="filter7_i" x="36.6791" y="16.6897" width="6.70629" height="17.5188" filterUnits="userSpaceOnUse" color-interpolation-filters="sRGB">
<feFlood flood-opacity="0" result="BackgroundImageFix"/>
<feBlend mode="normal" in="SourceGraphic" in2="BackgroundImageFix" result="shape"/>
<feColorMatrix in="SourceAlpha" type="matrix" values="0 0 0 0 0 0 0 0 0 0 0 0 0 0 0 0 0 0 127 0" result="hardAlpha"/>
<feOffset dy="4"/>
<feGaussianBlur stdDeviation="2"/>
<feComposite in2="hardAlpha" operator="arithmetic" k2="-1" k3="1"/>
<feColorMatrix type="matrix" values="0 0 0 0 0 0 0 0 0 0 0 0 0 0 0 0 0 0 0.25 0"/>
<feBlend mode="normal" in2="shape" result="effect1_innerShadow"/>
</filter>
<filter id="filter8_i" x="47.2292" y="24.7189" width="11.5472" height="14.5289" filterUnits="userSpaceOnUse" color-interpolation-filters="sRGB">
<feFlood flood-opacity="0" result="BackgroundImageFix"/>
<feBlend mode="normal" in="SourceGraphic" in2="BackgroundImageFix" result="shape"/>
<feColorMatrix in="SourceAlpha" type="matrix" values="0 0 0 0 0 0 0 0 0 0 0 0 0 0 0 0 0 0 127 0" result="hardAlpha"/>
<feOffset dy="4"/>
<feGaussianBlur stdDeviation="2"/>
<feComposite in2="hardAlpha" operator="arithmetic" k2="-1" k3="1"/>
<feColorMatrix type="matrix" values="0 0 0 0 0 0 0 0 0 0 0 0 0 0 0 0 0 0 0.25 0"/>
<feBlend mode="normal" in2="shape" result="effect1_innerShadow"/>
</filter>
<filter id="filter9_i" x="52.7234" y="38.7913" width="13.5786" height="10.7623" filterUnits="userSpaceOnUse" color-interpolation-filters="sRGB">
<feFlood flood-opacity="0" result="BackgroundImageFix"/>
<feBlend mode="normal" in="SourceGraphic" in2="BackgroundImageFix" result="shape"/>
<feColorMatrix in="SourceAlpha" type="matrix" values="0 0 0 0 0 0 0 0 0 0 0 0 0 0 0 0 0 0 127 0" result="hardAlpha"/>
<feOffset dy="4"/>
<feGaussianBlur stdDeviation="2"/>
<feComposite in2="hardAlpha" operator="arithmetic" k2="-1" k3="1"/>
<feColorMatrix type="matrix" values="0 0 0 0 0 0 0 0 0 0 0 0 0 0 0 0 0 0 0.25 0"/>
<feBlend mode="normal" in2="shape" result="effect1_innerShadow"/>
</filter>
<filter id="filter10_i" x="52.5225" y="52.838" width="13.619" height="10.6151" filterUnits="userSpaceOnUse" color-interpolation-filters="sRGB">
<feFlood flood-opacity="0" result="BackgroundImageFix"/>
<feBlend mode="normal" in="SourceGraphic" in2="BackgroundImageFix" result="shape"/>
<feColorMatrix in="SourceAlpha" type="matrix" values="0 0 0 0 0 0 0 0 0 0 0 0 0 0 0 0 0 0 127 0" result="hardAlpha"/>
<feOffset dy="4"/>
<feGaussianBlur stdDeviation="2"/>
<feComposite in2="hardAlpha" operator="arithmetic" k2="-1" k3="1"/>
<feColorMatrix type="matrix" values="0 0 0 0 0 0 0 0 0 0 0 0 0 0 0 0 0 0 0.25 0"/>
<feBlend mode="normal" in2="shape" result="effect1_innerShadow"/>
</filter>
<filter id="filter11_i" x="47.2045" y="62.8376" width="11.011" height="15.0944" filterUnits="userSpaceOnUse" color-interpolation-filters="sRGB">
<feFlood flood-opacity="0" result="BackgroundImageFix"/>
<feBlend mode="normal" in="SourceGraphic" in2="BackgroundImageFix" result="shape"/>
<feColorMatrix in="SourceAlpha" type="matrix" values="0 0 0 0 0 0 0 0 0 0 0 0 0 0 0 0 0 0 127 0" result="hardAlpha"/>
<feOffset dy="4"/>
<feGaussianBlur stdDeviation="2"/>
<feComposite in2="hardAlpha" operator="arithmetic" k2="-1" k3="1"/>
<feColorMatrix type="matrix" values="0 0 0 0 0 0 0 0 0 0 0 0 0 0 0 0 0 0 0.25 0"/>
<feBlend mode="normal" in2="shape" result="effect1_innerShadow"/>
</filter>
<filter id="filter12_i" x="36.8384" y="68.2037" width="6.76482" height="17.5039" filterUnits="userSpaceOnUse" color-interpolation-filters="sRGB">
<feFlood flood-opacity="0" result="BackgroundImageFix"/>
<feBlend mode="normal" in="SourceGraphic" in2="BackgroundImageFix" result="shape"/>
<feColorMatrix in="SourceAlpha" type="matrix" values="0 0 0 0 0 0 0 0 0 0 0 0 0 0 0 0 0 0 127 0" result="hardAlpha"/>
<feOffset dy="4"/>
<feGaussianBlur stdDeviation="2"/>
<feComposite in2="hardAlpha" operator="arithmetic" k2="-1" k3="1"/>
<feColorMatrix type="matrix" values="0 0 0 0 0 0 0 0 0 0 0 0 0 0 0 0 0 0 0.25 0"/>
<feBlend mode="normal" in2="shape" result="effect1_innerShadow"/>
</filter>
<filter id="filter13_i" x="18.1161" y="35.9772" width="81.0617" height="50.26" filterUnits="userSpaceOnUse" color-interpolation-filters="sRGB">
<feFlood flood-opacity="0" result="BackgroundImageFix"/>
<feBlend mode="normal" in="SourceGraphic" in2="BackgroundImageFix" result="shape"/>
<feColorMatrix in="SourceAlpha" type="matrix" values="0 0 0 0 0 0 0 0 0 0 0 0 0 0 0 0 0 0 127 0" result="hardAlpha"/>
<feOffset dy="4"/>
<feGaussianBlur stdDeviation="2"/>
<feComposite in2="hardAlpha" operator="arithmetic" k2="-1" k3="1"/>
<feColorMatrix type="matrix" values="0 0 0 0 0 0 0 0 0 0 0 0 0 0 0 0 0 0 0.25 0"/>
<feBlend mode="normal" in2="shape" result="effect1_innerShadow"/>
</filter>
<filter id="filter14_i" x="22.981" y="62.25" width="71.7603" height="16.3906" filterUnits="userSpaceOnUse" color-interpolation-filters="sRGB">
<feFlood flood-opacity="0" result="BackgroundImageFix"/>
<feBlend mode="normal" in="SourceGraphic" in2="BackgroundImageFix" result="shape"/>
<feColorMatrix in="SourceAlpha" type="matrix" values="0 0 0 0 0 0 0 0 0 0 0 0 0 0 0 0 0 0 127 0" result="hardAlpha"/>
<feOffset dy="4"/>
<feGaussianBlur stdDeviation="2"/>
<feComposite in2="hardAlpha" operator="arithmetic" k2="-1" k3="1"/>
<feColorMatrix type="matrix" values="0 0 0 0 0 0 0 0 0 0 0 0 0 0 0 0 0 0 0.25 0"/>
<feBlend mode="normal" in2="shape" result="effect1_innerShadow"/>
</filter>
<linearGradient id="paint0_linear" x1="23" y1="67.5" x2="101" y2="67.5" gradientUnits="userSpaceOnUse">
<stop offset="0.150403" stop-color="#0094FF"/>
<stop offset="0.448285" stop-color="#AC3DB6"/>
<stop offset="0.788721" stop-color="#FFC700"/>
</linearGradient>
</defs>
</svg>
